<svg width="195" height="38" viewBox="0 0 195 38" fill="none" xmlns="http://www.w3.org/2000/svg">
<path d="M8.40625 16.7031C9.73438 16.7031 10.6615 16.3776 11.1875 15.7266C11.7135 15.0703 11.9766 13.888 11.9766 12.1797C11.9766 10.4557 11.7135 9.26823 11.1875 8.61719C10.6667 7.96094 9.73958 7.63281 8.40625 7.63281H7.65625V16.7031H8.40625ZM8.4375 6.33594C10.2188 6.33594 11.5312 6.8099 12.375 7.75781C13.2188 8.70573 13.6406 10.1797 13.6406 12.1797C13.6406 14.1693 13.2188 15.638 12.375 16.5859C11.5312 17.5286 10.2188 18 8.4375 18H6.07031V6.33594H8.4375ZM19.4531 10.2578C18.724 10.2578 18.1719 10.5417 17.7969 11.1094C17.4219 11.6771 17.2344 12.5182 17.2344 13.6328C17.2344 14.7422 17.4219 15.5833 17.7969 16.1562C18.1719 16.724 18.724 17.0078 19.4531 17.0078C20.1875 17.0078 20.7422 16.724 21.1172 16.1562C21.4922 15.5833 21.6797 14.7422 21.6797 13.6328C21.6797 12.5182 21.4922 11.6771 21.1172 11.1094C20.7422 10.5417 20.1875 10.2578 19.4531 10.2578ZM19.4531 9.03906C20.6667 9.03906 21.5938 9.43229 22.2344 10.2188C22.8802 11.0052 23.2031 12.1432 23.2031 13.6328C23.2031 15.1276 22.8828 16.2682 22.2422 17.0547C21.6016 17.8359 20.6719 18.2266 19.4531 18.2266C18.2396 18.2266 17.3125 17.8359 16.6719 17.0547C16.0312 16.2682 15.7109 15.1276 15.7109 13.6328C15.7109 12.1432 16.0312 11.0052 16.6719 10.2188C17.3125 9.43229 18.2396 9.03906 19.4531 9.03906ZM29.0781 6.76562V9.25H32.3438V10.3672H29.0781V15.1172C29.0781 15.763 29.2005 16.2135 29.4453 16.4688C29.6901 16.724 30.1172 16.8516 30.7266 16.8516H32.3438V18H30.5859C29.5078 18 28.7474 17.7839 28.3047 17.3516C27.862 16.9193 27.6406 16.1745 27.6406 15.1172V10.3672H25.3047V9.25H27.6406V6.76562H29.0781ZM41.5234 9.55469V10.9609C41.112 10.7214 40.6979 10.5417 40.2812 10.4219C39.8646 10.3021 39.4401 10.2422 39.0078 10.2422C38.3568 10.2422 37.8698 10.349 37.5469 10.5625C37.2292 10.7708 37.0703 11.0911 37.0703 11.5234C37.0703 11.9141 37.1901 12.2057 37.4297 12.3984C37.6693 12.5911 38.2656 12.7786 39.2188 12.9609L39.7969 13.0703C40.5104 13.2057 41.0495 13.4766 41.4141 13.8828C41.7839 14.2891 41.9688 14.8177 41.9688 15.4688C41.9688 16.3333 41.6615 17.0104 41.0469 17.5C40.4323 17.9844 39.5781 18.2266 38.4844 18.2266C38.0521 18.2266 37.599 18.1797 37.125 18.0859C36.651 17.9974 36.138 17.862 35.5859 17.6797V16.1953C36.1224 16.4714 36.6354 16.6797 37.125 16.8203C37.6146 16.9557 38.0781 17.0234 38.5156 17.0234C39.151 17.0234 39.6432 16.8958 39.9922 16.6406C40.3411 16.3802 40.5156 16.0182 40.5156 15.5547C40.5156 14.888 39.8776 14.4271 38.6016 14.1719L38.5391 14.1562L38 14.0469C37.1719 13.8854 36.5677 13.6146 36.1875 13.2344C35.8073 12.849 35.6172 12.3255 35.6172 11.6641C35.6172 10.8255 35.901 10.1797 36.4688 9.72656C37.0365 9.26823 37.8464 9.03906 38.8984 9.03906C39.3672 9.03906 39.8177 9.08333 40.25 9.17188C40.6823 9.25521 41.1068 9.38281 41.5234 9.55469ZM58.6875 13.6016H58.2109C57.3724 13.6016 56.7396 13.75 56.3125 14.0469C55.8906 14.3385 55.6797 14.776 55.6797 15.3594C55.6797 15.8854 55.8385 16.2943 56.1562 16.5859C56.474 16.8776 56.9141 17.0234 57.4766 17.0234C58.2682 17.0234 58.8906 16.75 59.3438 16.2031C59.7969 15.651 60.026 14.8906 60.0312 13.9219V13.6016H58.6875ZM61.4766 13.0078V18H60.0312V16.7031C59.724 17.224 59.3359 17.6094 58.8672 17.8594C58.4036 18.1042 57.8385 18.2266 57.1719 18.2266C56.2812 18.2266 55.5703 17.9766 55.0391 17.4766C54.5078 16.9714 54.2422 16.2969 54.2422 15.4531C54.2422 14.4792 54.5677 13.7396 55.2188 13.2344C55.875 12.7292 56.8359 12.4766 58.1016 12.4766H60.0312V12.25C60.026 11.5521 59.849 11.0469 59.5 10.7344C59.151 10.4167 58.5938 10.2578 57.8281 10.2578C57.3385 10.2578 56.8438 10.3281 56.3438 10.4688C55.8438 10.6094 55.3568 10.8151 54.8828 11.0859V9.64844C55.4141 9.44531 55.9219 9.29427 56.4062 9.19531C56.8958 9.09115 57.3698 9.03906 57.8281 9.03906C58.5521 9.03906 59.1693 9.14583 59.6797 9.35938C60.1953 9.57292 60.612 9.89323 60.9297 10.3203C61.1276 10.5807 61.2682 10.9036 61.3516 11.2891C61.4349 11.6693 61.4766 12.2422 61.4766 13.0078ZM71.0547 12.5781V18H69.6094V12.5781C69.6094 11.7917 69.4714 11.2135 69.1953 10.8438C68.9193 10.474 68.487 10.2891 67.8984 10.2891C67.2266 10.2891 66.7083 10.5286 66.3438 11.0078C65.9844 11.4818 65.8047 12.1641 65.8047 13.0547V18H64.3672V9.25H65.8047V10.5625C66.0599 10.0625 66.4062 9.6849 66.8438 9.42969C67.2812 9.16927 67.7995 9.03906 68.3984 9.03906C69.2891 9.03906 69.9531 9.33333 70.3906 9.92188C70.8333 10.5052 71.0547 11.3906 71.0547 12.5781ZM79.1875 10.3672V5.84375H80.625V18H79.1875V16.8984C78.9479 17.3307 78.6276 17.6615 78.2266 17.8906C77.8307 18.1146 77.3724 18.2266 76.8516 18.2266C75.7943 18.2266 74.9609 17.8177 74.3516 17C73.7474 16.1771 73.4453 15.0443 73.4453 13.6016C73.4453 12.1797 73.75 11.0651 74.3594 10.2578C74.9688 9.44531 75.7995 9.03906 76.8516 9.03906C77.3776 9.03906 77.8411 9.15365 78.2422 9.38281C78.6432 9.60677 78.9583 9.9349 79.1875 10.3672ZM74.9609 13.6328C74.9609 14.7474 75.138 15.5885 75.4922 16.1562C75.8464 16.724 76.3698 17.0078 77.0625 17.0078C77.7552 17.0078 78.2812 16.7214 78.6406 16.1484C79.0052 15.5755 79.1875 14.737 79.1875 13.6328C79.1875 12.5234 79.0052 11.6849 78.6406 11.1172C78.2812 10.5443 77.7552 10.2578 77.0625 10.2578C76.3698 10.2578 75.8464 10.5417 75.4922 11.1094C75.138 11.6771 74.9609 12.5182 74.9609 13.6328ZM99.6719 6.73438V8.33594C99.1927 8.02865 98.7109 7.79688 98.2266 7.64062C97.7474 7.48438 97.263 7.40625 96.7734 7.40625C96.0286 7.40625 95.4401 7.58073 95.0078 7.92969C94.5755 8.27344 94.3594 8.73958 94.3594 9.32812C94.3594 9.84375 94.5 10.237 94.7812 10.5078C95.0677 10.7786 95.599 11.0052 96.375 11.1875L97.2031 11.375C98.2969 11.6302 99.0938 12.0312 99.5938 12.5781C100.094 13.125 100.344 13.8698 100.344 14.8125C100.344 15.9219 100 16.7682 99.3125 17.3516C98.625 17.9349 97.625 18.2266 96.3125 18.2266C95.7656 18.2266 95.2161 18.1667 94.6641 18.0469C94.112 17.9323 93.5573 17.7578 93 17.5234V15.8438C93.599 16.224 94.1641 16.5026 94.6953 16.6797C95.2318 16.8568 95.7708 16.9453 96.3125 16.9453C97.1094 16.9453 97.7292 16.7682 98.1719 16.4141C98.6146 16.0547 98.8359 15.5547 98.8359 14.9141C98.8359 14.3307 98.6823 13.8854 98.375 13.5781C98.0729 13.2708 97.5443 13.0339 96.7891 12.8672L95.9453 12.6719C94.862 12.4271 94.0755 12.0573 93.5859 11.5625C93.0964 11.0677 92.8516 10.4036 92.8516 9.57031C92.8516 8.52865 93.2005 7.69531 93.8984 7.07031C94.6016 6.4401 95.5339 6.125 96.6953 6.125C97.1432 6.125 97.6146 6.17708 98.1094 6.28125C98.6042 6.38021 99.125 6.53125 99.6719 6.73438ZM110.156 12.9062V13.6094H103.93V13.6562C103.888 14.849 104.115 15.7057 104.609 16.2266C105.109 16.7474 105.812 17.0078 106.719 17.0078C107.177 17.0078 107.656 16.9349 108.156 16.7891C108.656 16.6432 109.19 16.4219 109.758 16.125V17.5547C109.211 17.7786 108.682 17.9453 108.172 18.0547C107.667 18.1693 107.177 18.2266 106.703 18.2266C105.344 18.2266 104.281 17.8203 103.516 17.0078C102.75 16.1901 102.367 15.0651 102.367 13.6328C102.367 12.237 102.742 11.1224 103.492 10.2891C104.242 9.45573 105.242 9.03906 106.492 9.03906C107.607 9.03906 108.484 9.41667 109.125 10.1719C109.771 10.9271 110.115 11.8385 110.156 12.9062ZM108.719 12.4844C108.656 11.8802 108.435 11.3594 108.055 10.9219C107.68 10.4792 107.138 10.2578 106.43 10.2578C105.737 10.2578 105.167 10.487 104.719 10.9453C104.271 11.4036 104.026 11.9193 103.984 12.4922L108.719 12.4844ZM119.797 12.9062V13.6094H113.57V13.6562C113.529 14.849 113.755 15.7057 114.25 16.2266C114.75 16.7474 115.453 17.0078 116.359 17.0078C116.818 17.0078 117.297 16.9349 117.797 16.7891C118.297 16.6432 118.831 16.4219 119.398 16.125V17.5547C118.852 17.7786 118.323 17.9453 117.812 18.0547C117.307 18.1693 116.818 18.2266 116.344 18.2266C114.984 18.2266 113.922 17.8203 113.156 17.0078C112.391 16.1901 112.008 15.0651 112.008 13.6328C112.008 12.237 112.383 11.1224 113.133 10.2891C113.883 9.45573 114.883 9.03906 116.133 9.03906C117.247 9.03906 118.125 9.41667 118.766 10.1719C119.411 10.9271 119.755 11.8385 119.797 12.9062ZM118.359 12.4844C118.297 11.8802 118.076 11.3594 117.695 10.9219C117.32 10.4792 116.779 10.2578 116.07 10.2578C115.378 10.2578 114.807 10.487 114.359 10.9453C113.911 11.4036 113.667 11.9193 113.625 12.4922L118.359 12.4844ZM127.391 10.3672V5.84375H128.828V18H127.391V16.8984C127.151 17.3307 126.831 17.6615 126.43 17.8906C126.034 18.1146 125.576 18.2266 125.055 18.2266C123.997 18.2266 123.164 17.8177 122.555 17C121.951 16.1771 121.648 15.0443 121.648 13.6016C121.648 12.1797 121.953 11.0651 122.562 10.2578C123.172 9.44531 124.003 9.03906 125.055 9.03906C125.581 9.03906 126.044 9.15365 126.445 9.38281C126.846 9.60677 127.161 9.9349 127.391 10.3672ZM123.164 13.6328C123.164 14.7474 123.341 15.5885 123.695 16.1562C124.049 16.724 124.573 17.0078 125.266 17.0078C125.958 17.0078 126.484 16.7214 126.844 16.1484C127.208 15.5755 127.391 14.737 127.391 13.6328C127.391 12.5234 127.208 11.6849 126.844 11.1172C126.484 10.5443 125.958 10.2578 125.266 10.2578C124.573 10.2578 124.049 10.5417 123.695 11.1094C123.341 11.6771 123.164 12.5182 123.164 13.6328ZM137.93 9.55469V10.9609C137.518 10.7214 137.104 10.5417 136.688 10.4219C136.271 10.3021 135.846 10.2422 135.414 10.2422C134.763 10.2422 134.276 10.349 133.953 10.5625C133.635 10.7708 133.477 11.0911 133.477 11.5234C133.477 11.9141 133.596 12.2057 133.836 12.3984C134.076 12.5911 134.672 12.7786 135.625 12.9609L136.203 13.0703C136.917 13.2057 137.456 13.4766 137.82 13.8828C138.19 14.2891 138.375 14.8177 138.375 15.4688C138.375 16.3333 138.068 17.0104 137.453 17.5C136.839 17.9844 135.984 18.2266 134.891 18.2266C134.458 18.2266 134.005 18.1797 133.531 18.0859C133.057 17.9974 132.544 17.862 131.992 17.6797V16.1953C132.529 16.4714 133.042 16.6797 133.531 16.8203C134.021 16.9557 134.484 17.0234 134.922 17.0234C135.557 17.0234 136.049 16.8958 136.398 16.6406C136.747 16.3802 136.922 16.0182 136.922 15.5547C136.922 14.888 136.284 14.4271 135.008 14.1719L134.945 14.1562L134.406 14.0469C133.578 13.8854 132.974 13.6146 132.594 13.2344C132.214 12.849 132.023 12.3255 132.023 11.6641C132.023 10.8255 132.307 10.1797 132.875 9.72656C133.443 9.26823 134.253 9.03906 135.305 9.03906C135.773 9.03906 136.224 9.08333 136.656 9.17188C137.089 9.25521 137.513 9.38281 137.93 9.55469Z" fill="#2661CA"/>
<path d="M195 18.9927C195 19.2788 194.893 19.5649 194.68 19.7795L194.52 19.9136L191.934 21.5497C180.443 28.8093 165.601 28.8183 154.102 21.5676L151.32 19.7884C150.893 19.3593 150.893 18.653 151.32 18.2239L151.48 18.0898L154.084 16.4447C165.575 9.1851 180.425 9.1851 191.916 16.4447L194.68 18.2239C194.893 18.4384 195 18.7245 195 19.0106L195 18.9927ZM153.542 18.9927L155.088 19.9672C165.975 26.8335 180.052 26.8335 190.939 19.9494L192.458 18.9838L190.921 18.0182C180.034 11.143 165.966 11.143 155.07 18.0182L153.533 18.9838L153.542 18.9927Z" fill="#2661CA"/>
<path d="M1 22H127.5C141.5 22 156 26.5 166 33" stroke="#2661CA" stroke-width="2" stroke-linecap="round"/>
<circle cx="170.5" cy="36.5" r="1.5" fill="#2661CA"/>
<path d="M143 14.2767C151.619 12.3942 159.702 9.09373 166 4.99998" stroke="#2661CA" stroke-width="2" stroke-linecap="round"/>
<circle cx="1.5" cy="1.5" r="1.5" transform="matrix(1 0 0 -1 169 3)" fill="#2661CA"/>
</svg>
