<?xml version="1.0" encoding="UTF-8"?>
<svg id="Layer_2" data-name="Layer 2" xmlns="http://www.w3.org/2000/svg" viewBox="0 0 1305.48 331.98">
  <defs>
    <style>
      .cls-1 {
        fill: none;
        stroke: rgba(83, 154, 234, .2);
        stroke-linecap: round;
        stroke-width: 8.55px;
      }
    </style>
  </defs>
  <g id="Layer_3" data-name="Layer 3">
    <path class="cls-1" d="M175.34,37.41s26.52,30.49,82.22,30.49S352.03,4.27,415.37,4.27s96.94,63.63,163.11,63.63S667.33,4.27,738.94,4.27s94.15,63.63,164.44,63.63,96.81-63.63,153.83-63.63,88.85,33.14,88.85,33.14M4.27,163.34s29.17-30.49,86.2-30.49,103.44,60.98,167.09,60.98,94.47-63.63,157.81-63.63,96.94,63.63,163.11,63.63,88.85-63.63,160.46-63.63,94.15,63.63,164.44,63.63,83.54-63.63,153.83-63.63,106.09,63.63,164.44,63.63,79.56-30.49,79.56-30.49M175.34,297.22s26.52,30.49,82.22,30.49,94.47-63.63,157.81-63.63,96.94,63.63,163.11,63.63,88.85-63.63,160.46-63.63,94.15,63.63,164.44,63.63,96.81-63.63,153.83-63.63,88.85,33.14,88.85,33.14"/>
  </g>
</svg>