<?xml version="1.0" encoding="UTF-8"?>
<svg id="Layer_2" data-name="Layer 2" xmlns="http://www.w3.org/2000/svg" xmlns:xlink="http://www.w3.org/1999/xlink" viewBox="0 0 186.21 128.42">
  <defs>
    <style>
      .cls-1 {
        fill: none;
      }

      .cls-2 {
        fill: #539aea;
      }

      .cls-3 {
        fill: #2661ca;
      }

      .cls-4 {
        fill: #ffe1f2;
      }

      .cls-5 {
        fill: #a8b0ec;
      }

      .cls-6 {
        clip-path: url(#clippath);
      }
    </style>
    <clipPath id="clippath">
      <path class="cls-1" d="M.31,105.01c2.04,17.95,14.45,22.97,22.59,22.97s102.84.58,107.42.37c8.02-.37,43.45,2.64,52.97-10,8.56-11.37-4.44-24.82-4.44-24.82,0,0,11.48-17.78-5.19-34.45-16.67-16.67-34.82-4.44-34.82-4.44,0,0-1.48-29.63-20.74-43.34-19.26-13.71-52.23-17.41-76.3,2.96-24.08,20.37-14.45,50.38-14.45,50.38,0,0-30.74,7.78-27.04,40.37Z"/>
    </clipPath>
  </defs>
  <g id="Layer_1-2" data-name="Layer 1">
    <g id="About">
      <g class="cls-6">
        <path class="cls-2" d="M.31,105.01c2.04,17.95,14.45,22.97,22.59,22.97s102.84.58,107.42.37c8.02-.37,43.45,2.64,52.97-10,8.56-11.37-4.44-24.82-4.44-24.82,0,0,11.48-17.78-5.19-34.45-16.67-16.67-34.82-4.44-34.82-4.44,0,0-1.48-29.63-20.74-43.34-19.26-13.71-52.23-17.41-76.3,2.96-24.08,20.37-14.45,50.38-14.45,50.38,0,0-30.74,7.78-27.04,40.37Z"/>
        <path class="cls-5" d="M110.62,15.52c3.49,20.25-10.54,32.41-10.54,32.41,0,0,15.57-4.17,16.61,11.08,1.04,15.21-22.71,28.13-32.4,20.44-6.35-5.04-3.18-15.98-3.18-15.98,0,0-5.64,5.48-15.47,8.54-10.62,3.31-14.66,2.58-14.66,2.58,0,0,7.41,13.43.21,27.56-7.63,14.98-17.58,20.7-28.93,22.18-8.09,1.05-20.72-2.47-29.3-14.86C-15.61,97.07,9.17-20.19,9.17-20.19l78.17,3.81S108.24,1.7,110.62,15.52Z"/>
        <path class="cls-5" d="M174.26,62.35c0,7.17-8.04,9.93-18.18,9.93s-18.36-5.82-18.36-12.99,8.22-12.99,18.36-12.99,18.18,8.88,18.18,16.05Z"/>
        <path class="cls-4" d="M73.13,48.27c-10.13,17.54-27.96,22.93-40.7,19.07-12.17-3.69-16.03-21.54-5.9-39.08C36.65,10.71,83.31-33.28,103.27,3.58c3.22,5.94-26.68,6.06-25.12,10,3.63,9.15,2.05,22.43-5.03,34.69Z"/>
        <path class="cls-4" d="M34.8,94.67c-6.8,10.48-19.87,11.37-27.81,6.22-7.94-5.15-7.75-14.39-.96-24.87,6.8-10.48,18.74-14.8,26.69-9.65,7.94,5.15,8.88,17.82,2.08,28.3Z"/>
        <path class="cls-4" d="M171.57,57.7c0,2.65-.99.55-9.59.55s-21.82,7.16-24.45,2.17c-1.23-2.34,2.33-13.27,17.28-11.91,8.56.78,16.76,6.54,16.76,9.18Z"/>
        <path class="cls-3" d="M77.14,127.65c-.12,9.85,98.74,6.4,103.42,2.46,4.68-3.94,12.34-20.75,5.31-22.2-3.33-.69-4.44,3.47-17.16,6.54-14.45,3.48-24.71-.76-24.71-.76,0,0,.43-3.59.09-6.57-.32-2.78-1.31-5.38-2.19-7.18-.67-1.38-2.71-2.17-3.85-1.14-2.81,2.54-8.65,9.92-17.08,12.84-5.59,1.94-43.72,6.97-43.83,16.01Z"/>
      </g>
    </g>
  </g>
</svg>