<?xml version="1.0" encoding="UTF-8"?>
<svg id="Layer_2" data-name="Layer 2" xmlns="http://www.w3.org/2000/svg" xmlns:xlink="http://www.w3.org/1999/xlink" viewBox="0 0 310.88 159.58">
  <defs>
    <style>
      .cls-1 {
        fill: none;
      }

      .cls-2 {
        fill: #539aea;
      }

      .cls-3 {
        fill: #2661ca;
      }

      .cls-4 {
        fill: #ffe1f2;
      }

      .cls-5 {
        fill: #a8b0ec;
      }

      .cls-6 {
        clip-path: url(#clippath);
      }
    </style>
    <clipPath id="clippath">
      <path class="cls-1" d="M10.79,153.87c-14.68-3.09-12.62-26.37-4.25-40.24,9.09-15.05,24.37-17.93,24.37-17.93,0,0-3.33-34.79,29.53-53.11,32.87-18.31,77.99-1.04,77.99-1.04,0,0,12.05-55.21,80.67-38.36,52.06,12.79,40.65,75.79,40.65,75.79,0,0,29-5.77,43.85,17.64,15.18,23.91,3.81,52.02-8.63,55.61-30.45,8.77-243.83,10.15-284.19,1.64Z"/>
    </clipPath>
  </defs>
  <g id="Layer_1-2" data-name="Layer 1">
    <g id="About">
      <g class="cls-6">
        <path class="cls-2" d="M10.79,153.87c-14.68-3.09-12.62-26.37-4.25-40.24,9.09-15.05,24.37-17.93,24.37-17.93,0,0-3.33-34.79,29.53-53.11,32.87-18.31,69.49-4.7,69.49-4.7,0,0,44.27-66.31,101.96-42.62,44.89,18.43,27.86,83.7,27.86,83.7,0,0,29-5.77,43.85,17.64,15.18,23.91,3.81,52.02-8.63,55.61-30.45,8.77-243.83,10.15-284.19,1.64Z"/>
        <path class="cls-5" d="M33.32,157.7c5.04,0,27.21-10.33,50.42-30.92,14.89-13.21,19.18-30.99,19.18-30.99,0,0,6.74.35,16.82,4.48,10.08,4.13,18.33,12.38,18.33,12.38l11.46-3.67s2.03-5.39,0-20.17c-1.26-9.18-5.77-23.12-5.77-23.12,0,0,10.4,3.76,19.52,11.66,4.17,3.61,8.71,9.17,8.71,9.17,0,0,4.23.1,8.25-.92,7.7-1.94,8.71-3.21,8.71-3.21,0,0-3.67,19.25,4.58,22.92,8.25,3.67,11.92-4.58,18.79-7.33,6.88-2.75,19.71,1.38,21.08-5.5s-3.31-16.16-7.68-18.85c-6.52-4.01-10.37-3.34-10.37-3.34,0,0,24.51-16.52,9.02-48.67-14.24-29.56-55.5-32.42-55.5-32.42L8.82,26.02l-42.17,125.59,66.67,6.1Z"/>
        <path class="cls-4" d="M97.34,36.38c7.97,7.97-.66,37.49-15.22,52.06-14.56,14.56-42.87,15.28-50.84,7.31-7.97-7.97-1.71-27.45,12.85-42.02,14.56-14.56,45.24-25.32,53.21-17.35Z"/>
        <path class="cls-4" d="M181.36,8.98c6.34,6.36,3.61,18.92-6.09,28.62-9.7,9.7-26.41,13.14-33.49,7.61s-9.02-15.26.68-24.96c9.7-9.7,27.56-22.66,38.9-11.27Z"/>
        <ellipse class="cls-4" cx="19.93" cy="116.07" rx="27.09" ry="16.74" transform="translate(-70.57 40.72) rotate(-40.48)"/>
        <path class="cls-3" d="M303.83,103.33c-8.16,1.69-14.29,11.91-24.71,19.94s-51.76,20.95-50.9,30.66c2.08,23.52,52.69,6.55,52.69,6.55l47.93-8.04s-7.74-52.69-25-49.12Z"/>
        <path class="cls-3" d="M135.35,159c-2.95-5.52,5.23-26.86,21.13-26.2,8.04.34,12.8,5.66,12.8,5.66,0,0,3.57-2.38,9.23.89s5.66,10.12,5.66,10.12c0,0,26.76-2.36,28.87,6.25,5.26,21.39-36.61,8.33-36.61,8.33,0,0-36.32,3.87-41.08-5.06Z"/>
      </g>
    </g>
  </g>
</svg>