<?xml version="1.0" encoding="UTF-8"?>
<svg id="Layer_2" data-name="Layer 2" xmlns="http://www.w3.org/2000/svg" viewBox="0 0 306.86 174.01">
  <defs>
    <style>
      .cls-1 {
        fill: #2661ca;
      }
    </style>
  </defs>
  <g id="Layer_1-2" data-name="Layer 1">
    <g id="Projects">
      <path class="cls-1" d="M253.98,100.18s14.83-4.64,32.22,5.4c13.29,7.67,29.13,41.39,15.33,59.79-10.77,14.37-260.12,7.63-276.3,2.48-20.7-6.59-34.57-45.6-17.65-70.61,17.49-25.86,47.81-18.39,47.81-18.39,0,0-2.21-17.65,10.3-28.69,12.5-11.03,30.16-4.41,30.16-4.41,0,0,5.88-35.31,35.31-43.4,29.42-8.09,72.44,5.78,87.53,24.27,22.8,27.95,34.57,63.99,35.31,73.55Z"/>
    </g>
  </g>
</svg>