<?xml version="1.0" encoding="UTF-8"?>
<svg id="Layer_2" data-name="Layer 2" xmlns="http://www.w3.org/2000/svg" xmlns:xlink="http://www.w3.org/1999/xlink" viewBox="0 0 306.86 174.01">
  <defs>
    <style>
      .cls-1 {
        fill: none;
      }

      .cls-2 {
        fill: #539aea;
      }

      .cls-3 {
        fill: #2661ca;
      }

      .cls-4 {
        fill: #ffe1f2;
      }

      .cls-5 {
        fill: #a8b0ec;
      }

      .cls-6 {
        clip-path: url(#clippath);
      }
    </style>
    <clipPath id="clippath">
      <path class="cls-1" d="M52.88,100.18s-14.83-4.64-32.22,5.4c-13.29,7.67-29.13,41.39-15.33,59.79,10.77,14.37,260.12,7.63,276.3,2.48,20.7-6.59,34.57-45.6,17.65-70.61-17.49-25.86-47.81-18.39-47.81-18.39,0,0,2.21-17.65-10.3-28.69-12.5-11.03-30.16-4.41-30.16-4.41,0,0-5.88-35.31-35.31-43.4-29.42-8.09-72.44,5.78-87.53,24.27-22.8,27.95-34.57,63.99-35.31,73.55Z"/>
    </clipPath>
  </defs>
  <g id="Layer_1-2" data-name="Layer 1">
    <g id="About">
      <g class="cls-6">
        <path class="cls-2" d="M52.88,100.18s-14.83-4.64-32.22,5.4c-13.29,7.67-29.13,41.39-15.33,59.79,10.77,14.37,260.12,7.63,276.3,2.48,20.7-6.59,34.57-45.6,17.65-70.61-17.49-25.86-47.81-18.39-47.81-18.39,0,0,2.21-17.65-10.3-28.69-12.5-11.03-30.16-4.41-30.16-4.41,0,0-5.88-35.31-35.31-43.4-29.42-8.09-72.44,5.78-87.53,24.27-22.8,27.95-34.57,63.99-35.31,73.55Z"/>
        <path class="cls-5" d="M201.38,17.74c-.41,11.06-47.14,21.97-47.14,21.97,0,0,6.56,36.54,4.58,45.31-3.2,14.19-10.53,19.22-10.53,19.22,0,0,19.68,14.65,16.02,26.09-3.66,11.44-47.6,24.71-56.29,18.31-8.7-6.41,8.24-29.29,8.24-29.29,0,0-20.14,2.75-35.24,3.66-6.4.39-19.68-2.75-19.68-2.75,0,0,0,17.39-10.98,29.29-10.98,11.9-26.09,20.14-37.07,21.05s-35.7-19.22-35.7-19.22L57.21-28.03s129.52,6.87,135.47,11.44c5.95,4.58,9.15,21.97,8.7,34.33Z"/>
        <path class="cls-5" d="M209.09,47.14c-11.11,7.94-10.45,36.8-4.96,39.09,5.49,2.29,15.25-9.1,26.09-14.19,11.32-5.31,19.9-3.83,18.99-12.52s-20.9-26.11-40.12-12.38Z"/>
        <path class="cls-4" d="M66.77,34.26c-18.15,29.56-23.79,63.73-10.04,72.17,13.75,8.45,35.69-16.97,55.01-45.78C132.43,29.79,148.99,8.78,135.24.34c-13.75-8.45-50.31,4.36-68.46,33.92Z"/>
        <ellipse class="cls-4" cx="98.09" cy="78.43" rx="46.63" ry="19.32" transform="translate(-27.47 75.75) rotate(-37.42)"/>
        <ellipse class="cls-4" cx="28.39" cy="121.42" rx="32.5" ry="18.15" transform="translate(-69.66 44.38) rotate(-38.68)"/>
        <path class="cls-4" d="M236.08,46.18c2.9,5.81-2.31,14.31-11.65,18.97-9.34,4.66-18.5,5.84-21.4.03-2.9-5.81,1.56-16.43,10.89-21.09,9.34-4.66,19.26-3.73,22.16,2.09Z"/>
        <path class="cls-3" d="M306.66,109.87c-12.75-3.11-19.44,13.38-31.3,23.48-11.5,9.79-29.28,15.65-29.28,15.65,0,0,6.82-16.66,6.56-24.74-.25-8.08-.76-18.93-5.05-19.69-4.29-.76-10.6,12.37-15.9,14.64s-7.83-.25-12.87,2.27c-5.05,2.52-15.15,27.26-27.77,30.29-10.56,2.53-62.85,7.32-62.6,17.42.42,16.91,44.68,17.16,44.68,17.16l143.38-4.29s.5-69.67-9.84-72.19Z"/>
      </g>
    </g>
  </g>
</svg>