<?xml version="1.0" encoding="UTF-8"?>
<svg id="Layer_2" data-name="Layer 2" xmlns="http://www.w3.org/2000/svg" viewBox="0 0 534.05 722.03">
  <defs>
    <style>
      .cls-1 {
        fill: #539aea;
      }

      .cls-2 {
        fill: #2661ca;
      }

      .cls-3 {
        fill: #ffe1f2;
      }

      .cls-4 {
        fill: #a8b0ec;
      }
    </style>
  </defs>
  <g id="Layer_1-2" data-name="Layer 1">
    <g id="Header">
      <g>
        <path class="cls-1" d="M533.53.43l-60.95-.05L180.34.14.16.43l-.16,69.89.04,159.69v54.01s.02,26.06.02,26.06H.06s.06,265.17.06,265.17l.04,143.65c7.19,1.75,36.02,7.57,67.43-3.27,40.76-14.05,63.47-66.93,63.47-66.93,0,0,104.33,22.95,158.37-59.09,11.92-18.1,19.83-35.69,24.74-52.4,4.8-16.27,6.46-34.97,6.83-46.79,1.75-56.56-29.9-94.97-29.9-94.97,0,0,41.24-27.14,61.84-66.54,23.36-44.68,17.87-89.4,17.87-89.4,0,0,86.47-.22,113.21-56.36,11.56-24.28,14-39.89,14.03-54.79.07-28.68-19.81-57.62-19.81-57.62,0,0,37.84-11.91,48.73-32.79,9.83-18.86,6.56-37.52,6.56-37.52Z"/>
        <path class="cls-4" d="M526.97,37.95c-10.89,20.88-48.73,32.79-48.73,32.79,0,0,19.88,28.94,19.81,57.62-.03,14.9-2.47,30.51-14.03,54.79-26.74,56.14-113.21,56.36-113.21,56.36,0,0,5.49,44.72-17.87,89.4-20.6,39.4-61.84,66.54-61.84,66.54,0,0,31.65,38.41,29.9,94.97-.37,11.82-2.03,30.52-6.83,46.79-4.91,16.71-12.82,34.3-24.74,52.4-54.04,82.04-158.37,59.09-158.37,59.09,0,0-22.71,52.88-63.47,66.93-31.41,10.84-60.24,5.02-67.43,3.27l-.04-143.65-.06-265.16H.06c5.73-.52,47.84-3.27,81.07,20.69,40.3,29.05,43.76,49.54,43.76,49.54,0,0,24.2-12.79,60.27-18.17,39.28-5.85,77.8,8.42,77.8,8.42,0,0-5.18-23.06-37.95-51.3-27.17-23.43-60.44-28.82-60.44-28.82,0,0,11.25-22.49,44.98-25.3,26.41-2.2,44.04,4.45,44.04,4.45,0,0-10.1-18-12.2-35.97-1.69-14.45,4.3-30.1,4.3-30.1,0,0-56.22,1.36-69.34-29.56-13.11-30.92,52.48-69.34,69.35-59.03,16.86,10.3,19.67,31.86,19.67,31.86,0,0,4.98-22.5,34.6-44.85,28.49-21.5,76.38-14.13,76.38-14.13,0,0-12.62-30.72,17.8-44.98,29.98-14.06,42.17,3.74,42.17,3.74,0,0,22.25-10.95,29.98-23.42,4.38-7.08,5.82-16.67,6.28-22.78l60.95.05s3.27,18.66-6.56,37.52Z"/>
        <path class="cls-4" d="M15.55,211.5c-.55,14.48,35,32.97,53.08,26.19s48.17-63.58,27.67-83.89c-20.5-20.31-79.33,19.94-80.75,57.69Z"/>
        <path class="cls-3" d="M483.63,183.95c-26.72,54.41-109.96,55.54-112.75,55.56-10.41-2.21-18.06-6.46-20.59-12.64-7-17.07,19.48-42.74,54.89-57.25,4.37-1.79,8.72-3.33,13.02-4.62-.08-.25-.16-.5-.22-.76-2.87-11.29,6.53-23.42,21-27.1,14.46-3.68,28.52,2.5,31.39,13.79,1.03,4.06.47,8.24-1.35,12.09,6.29,2.38,10.84,6.13,12.93,11.23,1.23,2.99,1.79,6.26,1.68,9.7Z"/>
        <path class="cls-3" d="M314.17,537.21c-4.91,16.71-12.82,34.3-24.74,52.4-54.04,82.04-158.37,59.09-158.37,59.09,0,0-22.71,52.88-63.47,66.93-31.41,10.84-60.24,5.02-67.43,3.27l-.04-143.65c5.72-3.32,11.87-6.16,18.41-8.42,1.68-.58,3.36-1.11,5.05-1.6-1.41-2.53-2.38-5.3-2.82-8.25-2.38-15.89,11.48-31.13,30.96-34.04,19.47-2.91,37.18,7.61,39.56,23.51,1.09,7.3-1.26,14.46-5.99,20.35,5.42,1.99,10.57,4.48,15.39,7.42,9.09-26.2,30.45-53.25,60.88-73.6,55.37-37.05,119.79-37.9,143.87-1.91,7.41,11.08,10.14,24.35,8.74,38.5Z"/>
        <path class="cls-2" d="M180.35.14c-6.81,2.34-29.35,10.48-42.76,20.44-21.51,15.97-26.62,51.33-26.62,51.33,0,0-18.35-1.73-42.63,8.07-24.28,9.8-33.46,30.55-33.46,30.55,0,0-10.25-13.83-10.25-24.21s1.62-24.21,1.62-24.21c0,0-3.91,6.72-17.5,8.6-3.7.51-6.66.13-8.74-.39L.16.43,180.35.14Z"/>
        <path class="cls-2" d="M252.71,0s4.69,8.9,28.58,17.34S345.01.47,345.01.47l-92.3-.47Z"/>
        <path class="cls-2" d="M34.51,267.49c-3.57,4.36-27.25,13.74-34.46,16.53v-54.01c3.62-1.85,12.72-5.13,20.4,3.28,9.84,10.77,18.27,29.04,14.06,34.2Z"/>
        <path class="cls-4" d="M316.74,406.34c-2.3,13.89,22.09,43.39,50.08,41.95,23.31-1.19,20.09-83.3-4.87-82.89-13.64.22-42.09,22.05-45.21,40.93Z"/>
        <path class="cls-3" d="M382.15,417.42c-.62,14.99-2.19,27.49-14.37,31.55-14.33,4.78-42.48-13.31-42.48-28.42s20.5-36.86,35.61-36.86,21.87,18.64,21.24,33.73Z"/>
        <path class="cls-3" d="M246.26,135.8c.7.26.7,1.25,0,1.51-3.42,1.29-10.12,4.04-12.81,6.73s-5.4,12.99-6.7,18.48c-.2.83-1.37.83-1.57,0-1.3-5.49-4.03-15.81-6.7-18.48s-9.38-5.44-12.81-6.73c-.7-.26-.7-1.25,0-1.51,3.42-1.29,10.12-4.04,12.81-6.73,2.67-2.67,5.4-12.99,6.7-18.48.2-.83,1.37-.83,1.57,0,1.3,5.49,4.03,15.81,6.7,18.48,2.69,2.69,9.38,5.44,12.81,6.73Z"/>
        <path class="cls-3" d="M123.47,351.6c.7.26.7,1.25,0,1.51-3.42,1.29-10.12,4.04-12.81,6.73s-5.4,12.99-6.7,18.48c-.2.83-1.37.83-1.57,0-1.3-5.49-4.03-15.81-6.7-18.48s-9.38-5.44-12.81-6.73c-.7-.26-.7-1.25,0-1.51,3.42-1.29,10.12-4.04,12.81-6.73,2.67-2.67,5.4-12.99,6.7-18.48.2-.83,1.37-.83,1.57,0,1.3,5.49,4.03,15.81,6.7,18.48,2.69,2.69,9.38,5.44,12.81,6.73Z"/>
      </g>
    </g>
  </g>
</svg>