<?xml version="1.0" encoding="UTF-8"?>
<svg id="Layer_2" data-name="Layer 2" xmlns="http://www.w3.org/2000/svg" xmlns:xlink="http://www.w3.org/1999/xlink" viewBox="0 0 662.19 358.13">
  <defs>
    <style>
      .cls-1 {
        fill: none;
      }

      .cls-2 {
        fill: #539aea;
      }

      .cls-3 {
        fill: #2661ca;
      }

      .cls-4 {
        fill: #ffe1f2;
      }

      .cls-5 {
        fill: #a8b0ec;
      }

      .cls-6 {
        clip-path: url(#clippath);
      }
    </style>
    <clipPath id="clippath">
      <path class="cls-1" d="M0,358.13c197.93,0,464.25-.17,662.19-.17V4.48s-61.02-18-119.81,18.18c-45.74,28.14-47.76,84.79-47.76,84.79,0,0-24.75-6.91-37.52,0-19.9,10.76-22.07,25.37-22.07,25.37,0,0-53.38-24.85-104.46,13.2-51.08,38.05-55.17,126.33-55.17,126.33,0,0-19.77-8.91-37.25-3.17-24.34,8-31.93,27.48-31.93,27.48,0,0-42.32-31.03-90.17-15.9-38.73,13.33-47.08,36.66-47.08,36.66,0,0-29.07-6.74-53.36,13.68-15.59,13.1-15.59,27.04-15.59,27.04Z"/>
    </clipPath>
  </defs>
  <g id="Layer_1-2" data-name="Layer 1">
    <g id="Projects">
      <g class="cls-6">
        <path class="cls-3" d="M0,358.13c197.93,0,464.25-.17,662.19-.17V4.48s-61.02-18-119.81,18.18c-45.74,28.14-47.76,84.79-47.76,84.79,0,0-24.75-6.91-37.52,0-19.9,10.76-22.07,25.37-22.07,25.37,0,0-53.38-24.85-104.46,13.2-51.08,38.05-55.17,126.33-55.17,126.33,0,0-19.77-8.91-37.25-3.17-24.34,8-31.93,27.48-31.93,27.48,0,0-42.32-31.03-90.17-15.9-38.73,13.33-47.08,36.66-47.08,36.66,0,0-29.07-6.74-53.36,13.68-15.59,13.1-15.59,27.04-15.59,27.04Z"/>
        <path class="cls-2" d="M519.95-49.62l-247.89,169.56s-108.53,147.1-132.67,156.73c-6.9,2.75-10.94,17.19,5.39,26.96,23.59,14.11,62.13,11.09,62.13,11.09,0,0,11.41,6.66,29.38,6.66,51.01,0,53.88-27.12,53.88-27.12,0,0,27.15,19.5,61.59,17.31,34.44-2.19,62.27-25.23,62.27-25.23,0,0,29.63,27.42,65.04,10.2-1.13,6.22-.76,12.25,1.76,16.61,6.81,11.8,35.67,5.69,47.47-1.12,11.8-6.81,6.93-20.72.12-32.52-2.97-5.14-7.51-8.81-12.66-10.75,8.66-25.07-2.31-44.19-2.31-44.19,0,0,16.04-1.14,29.23,5.01,26.08,12.16,40.05,35.22,40.05,35.22,0,0,23.84,13.48,70.67-6.71,46.83-20.19,70.03-224.57,70.03-224.57-36.33-63.79-203.48-83.17-203.48-83.17Z"/>
        <path class="cls-2" d="M69.93,321.27c0,4.32-6.31,8.03-15.38,8.03s-16.43-3.5-16.43-7.81,10.63-8.46,19.71-8.46,12.11,3.93,12.11,8.24Z"/>
        <path class="cls-5" d="M649.87,162.2c-10.54,5.87-20.41,13.26-20.41,22.53s9.78,16.79,21.84,16.79c12.06,0,23.64-24.95,23.64-34.22s-12.49-12.12-25.08-5.1Z"/>
        <path class="cls-5" d="M545.33-6.46c-226.95,89.1-276.65,240.55-276.65,240.55,0,0,18.75,14.06,35.94,16.15,19.68,2.39,33.61-.65,33.61-.65,0,0,14.58,26.69,34.89,20.44,11.92-3.67,23.82-11.06,23.96-18.23.2-10.5-15.37-20.84-15.37-20.84,0,0,22.62-2.36,38.81-13.28,11.2-7.55,21.24-24.89,21.24-24.89,0,0,21.61,17.51,62.87-3.13,32.39-16.19,23.19-42.74,23.19-42.74,0,0,13.54,2.67,31.22,3.38-2.18,3.14-3.48,6.63-3.48,10.26,0,12.3,14.98,21.37,28.41,21.37s37.51-17.25,37.51-29.55c0-4.42-3.11-7.59-7.72-9.85.76-.34,1.52-.69,2.26-1.06,34.48-17.09,46.16-48.58,46.16-48.58V4.48s-62.85-32.14-116.85-10.93Z"/>
        <path class="cls-5" d="M281.5,280.01c0,6.56-16.52,11.22-27.41,11.22s-23.5-12.43-23.5-19,16.26-5.39,27.15-5.39,23.76,6.61,23.76,13.17Z"/>
        <path class="cls-4" d="M652.35-19.02c-25.34,0-46.37,8.41-50.53,19.45-10.39-.67-21.93.29-33.94,3.46-37.88,9.97-69.13,52.98-68.27,72.65-7.51,4.47-12.28,11.13-12.28,18.58,0,.89.07,1.77.21,2.64-4.39-1.69-9.29-2.64-14.46-2.64-18.73,0-38.06,22.43-38.06,37.69s18.58,25.61,37.31,25.61,34.66-20.41,34.66-35.67c0-2.05-.28-4.04-.8-5.96,4.75,1.72,10.13,2.69,15.84,2.69,19.16,0,34.7-10.9,34.7-24.35,0-1.74-.27-3.44-.76-5.08,15.4-2.15,31.56-6.36,45.12-12.32,37.06-16.3,49.49-33.02,46.75-49.9,1.49.06,2.99.1,4.51.1,28.33,0,51.29-10.51,51.29-23.47s-22.96-23.47-51.29-23.47Z"/>
        <path class="cls-4" d="M423.45,135.5c0,15.56-26.2,28.17-58.52,28.17s-77.35-1.17-77.35-16.73,45.03-39.61,77.35-39.61,58.52,12.61,58.52,28.17Z"/>
      </g>
    </g>
  </g>
</svg>