<svg width="1397" height="527" viewBox="0 0 1397 527" fill="none" xmlns="http://www.w3.org/2000/svg">
<path d="M278.156 61.9467C278.156 61.9467 319.731 109.738 407.038 109.738C494.345 109.738 555.122 10 654.407 10C753.692 10 806.36 109.738 910.091 109.738C1013.82 109.738 1049.37 10 1161.62 10C1273.87 10 1309.21 109.738 1419.38 109.738C1529.55 109.738 1571.13 10 1660.51 10C1749.9 10 1799.79 61.9467 1799.79 61.9467M10 259.344C10 259.344 55.7321 211.553 145.118 211.553C234.503 211.553 307.259 307.135 407.038 307.135C506.817 307.135 555.122 207.398 654.407 207.398C753.692 207.398 806.36 307.135 910.091 307.135C1013.82 307.135 1049.37 207.398 1161.62 207.398C1273.87 207.398 1309.21 307.135 1419.38 307.135C1529.55 307.135 1550.34 207.398 1660.51 207.398C1770.69 207.398 1826.81 307.135 1918.28 307.135C2009.74 307.135 2043 259.344 2043 259.344M278.156 469.209C278.156 469.209 319.731 517 407.038 517C494.345 517 555.122 417.262 654.407 417.262C753.692 417.262 806.36 517 910.091 517C1013.82 517 1049.37 417.262 1161.62 417.262C1273.87 417.262 1309.21 517 1419.38 517C1529.55 517 1571.13 417.262 1660.51 417.262C1749.9 417.262 1799.79 469.209 1799.79 469.209" stroke="white" stroke-opacity="0.2" stroke-width="20" stroke-linecap="round"/>
</svg>
