<?xml version="1.0" encoding="UTF-8"?>
<svg id="Layer_2" data-name="Layer 2" xmlns="http://www.w3.org/2000/svg" viewBox="0 0 41.63 53.16">
  <defs>
    <style>
      .cls-1 {
        fill: #ffe1f2;
      }
    </style>
  </defs>
  <g id="Layer_1-2" data-name="Layer 1">
    <g id="Projects">
      <path class="cls-1" d="M41.11,25.83c.7.26.7,1.25,0,1.51-3.42,1.29-10.12,4.04-12.81,6.73s-5.4,12.99-6.7,18.48c-.2.83-1.37.83-1.57,0-1.3-5.49-4.03-15.81-6.7-18.48S3.95,28.63.52,27.34c-.7-.26-.7-1.25,0-1.51,3.42-1.29,10.12-4.04,12.81-6.73,2.67-2.67,5.4-12.99,6.7-18.48.2-.83,1.37-.83,1.57,0,1.3,5.49,4.03,15.81,6.7,18.48,2.69,2.69,9.38,5.44,12.81,6.73Z"/>
    </g>
  </g>
</svg>