<?xml version="1.0" encoding="UTF-8"?>
<svg id="Layer_2" data-name="Layer 2" xmlns="http://www.w3.org/2000/svg" viewBox="0 0 531.79 721.12">
  <defs>
    <style>
      .cls-1 {
        fill: #539aea;
      }

      .cls-2 {
        fill: #2661ca;
      }

      .cls-3 {
        fill: #ffe1f2;
      }

      .cls-4 {
        fill: #a8b0ec;
      }
    </style>
  </defs>
  <g id="Layer_1-2" data-name="Layer 1">
    <g id="Header">
      <g>
        <path class="cls-1" d="M531.04,0v716.96s-25.65,6.09-55.1,3.54c-.69-.05-1.37-.12-2.06-.19-16.63-1.67-34.31-6.17-49.14-16.12-26-17.45-34.26-39.57-36.54-55.42-1.22-8.53-.72-15.24-.32-18.42,0-.11.03-.21.04-.31.02-.16.04-.31.06-.45.01-.07.02-.14.03-.21.04-.28.07-.5.11-.67.02-.12.04-.22.05-.28,0-.04.01-.07.01-.1.01-.03.01-.04.01-.04,0,0-96.38,13.12-149.19-66.7-10.12-15.3-14.28-29.22-16.65-48.39-.01-.12-.03-.23-.04-.35-.53-4.36-.98-8.98-1.38-13.95-4.3-53.32,20.19-99.99,20.19-99.99,0,0-24.47-2.81-31.62-19.02-10.41-23.58.85-46.89.99-47.18.03-.05.04-.07.04-.07,0,0-.07-.01-.21-.05-18.49-4.56-60.26-17.52-96.61-63.76-6.02-7.65-11.88-16.21-17.47-25.79-41.7-71.52-.55-153.61-.55-153.61,0,0-47.64,1.93-73.92-25.49C-3.93,37.11.25.04.26,0h530.78Z"/>
        <path class="cls-4" d="M531.02,716.96s-64.42,15.31-106.28-12.77c-45.76-30.71-36.55-75.9-36.55-75.9,0,0-96.38,13.12-149.19-66.7-12.47-18.85-15.89-35.62-18.07-62.69-4.3-53.32,20.19-99.99,20.19-99.99,0,0-24.47-2.81-31.62-19.02-10.41-23.58.85-46.89.99-47.18.03-.05.04-.07.04-.07,0,0-.07-.01-.21-.05-21.55-5.31-74.72-22.04-114.08-89.55-41.7-71.52-.55-153.61-.55-153.61,0,0-47.64,1.93-73.92-25.49C-3.93,37.11.25.04.26,0h51.56s8.64,19.99,33,31.23c32.74,15.11,51.54,17.81,51.54,17.81,0,0,10.26-26.42,32.8-31.86,22.53-5.44,57.67,32.4,50.5,53.61-7.55,22.34-58.27,14.76-58.27,14.76,0,0-4.66,5.43-3.11,22.53,1.55,17.09,9.33,26.42,9.33,26.42,0,0,64.97,8.48,93.14,54.62,32.33,52.95,20.38,89.49,20.38,89.49,0,0,11.72,4.22,23.86,15.24,24.4,22.16,36.82,46.61,36.82,46.61,0,0-18.86,3.36-33.74,11.71-13.35,7.5-26.94,22.96-26.94,22.96,0,0,47.26-2.76,75.67,8.43,30.92,12.18,50.23,35.02,50.74,36.13-.14-1.73-6.84-80.96,6.22-97.1,13.21-16.31,59.05-24.85,90.13-17.86,18.15,4.08,25.43,7.37,27.9,9.4l-.77,402.83Z"/>
        <path class="cls-4" d="M427.55,114.46c-21.91,1.27-24.62,43.5-16.98,64.6,7.65,21.1,82.68,31.81,86.18,7.3,3.5-24.51-37.61-73.73-69.2-71.9Z"/>
        <path class="cls-3" d="M531.47,587.58l-.43,39.97-.96,89.25s-25.1,6.13-54.14,3.7c-.69-.05-1.37-.12-2.06-.19-16.56-1.61-34.22-6.07-49.14-16.08-26.02-17.47-34.27-39.61-36.54-55.46-1.22-8.53-.72-15.24-.32-18.42,0-.11.03-.21.04-.31.02-.16.04-.31.06-.45.01-.07.02-.14.03-.21.04-.28.08-.5.11-.67.02-.12.04-.22.05-.28.01-.07.02-.1.02-.1h-.01s.01-.04.01-.04c0,0-96.38,13.12-149.19-66.7-10.12-15.3-14.28-29.22-16.65-48.39-.01-.12-.03-.23-.04-.35,1.82-41.59,67.01-56.87,126.66-43.11,19.16,4.42,37.09,12.61,52.47,23.09,7.52-13.58,20.07-24.03,34.68-24.03,23.8,0,44.04,27.74,44.04,51.54,0,18.66-11.85,34.54-28.44,40.54,1.03,5.95.16,18.63.06,19.17,11.46-2.33,23.51-3.49,35.41-3.49s32.65,6.91,43.85,10.87c.15.05.29.1.43.15Z"/>
        <path class="cls-3" d="M252.83,314.77c-8.44,14.02-23.51,19.85-42.29,17.87,0,0-.07-.01-.21-.05-18.49-4.56-60.26-17.52-96.61-63.76-5.06-12.17-3.78-23.68,2.77-33.71,4.02-6.17,10.51-10.46,18.56-13.06-.18-1.24-.29-2.52-.29-3.81,0-15.26,17.51-26.24,34.2-26.24s28.58,17.53,28.58,32.8c0,.4-.01.8-.04,1.18,4.63,1.54,9.22,3.31,13.7,5.3,36.76,16.37,56.24,59.2,41.63,83.48Z"/>
        <path class="cls-2" d="M531.11,92.15c-2.07.07-10.87-.4-19.07-11.88-8.08-11.32-2.61-28.97-2.61-28.97,0,0-16.87,3.52-33.74.71-16.5-2.76-26.27-13.58-26.69-14.05.12.32,2.6,6.87,1.2,16.39-1.25,8.43-5.94,11.24-5.94,11.24,0,0-11.9-20.3-43.73-25.3-29.48-4.63-54.9,5.14-55.54,5.38.11-.39,3.04-10.63,1.39-23.88-1.3-10.47-13.35-21.79-13.35-21.79h198.01l.07,92.15Z"/>
        <path class="cls-2" d="M531.19,205.81c-2.84,1.5-14.2,7.13-19.64,4.96-6.25-2.5-16.55-44.36-15.3-48.42,1.18-3.84,27.77-22.76,34.89-24.81l.05,68.27Z"/>
        <path class="cls-4" d="M204.38,681.68c11.53,16.68,54.72,14.78,73.61-5.93,18.51-20.29-22.32-82.87-54.21-74.21-28.62,7.76-30.28,64.4-19.4,80.14Z"/>
        <path class="cls-3" d="M268.1,655.47c4.22,19.68-10.02,39-30.45,39.36-27.17.47-40.29-13.91-40.29-32.8s9.1-46.82,29.52-45.92c21.08.94,37.27,20.89,41.23,39.36Z"/>
        <path class="cls-4" d="M71.02,105.92c-6.02-12.72-39.73-16.4-56.66,5.94-15.99,21.12,11.68,60.99,36.77,50.61,12.61-5.21,28.07-39.26,19.88-56.56Z"/>
        <path class="cls-3" d="M59.26,131.9c.29,15.78-10.89,34.67-25.53,30.45-16.66-4.8-23.89-21.79-23.89-33.97,0-8.2,10.88-16.17,28.11-14.29,12.88,1.41,21.08,5.15,21.32,17.8Z"/>
        <path class="cls-3" d="M302.92,94.97c.7.26.7,1.25,0,1.51-3.42,1.29-10.12,4.04-12.81,6.73s-5.4,12.99-6.7,18.48c-.2.83-1.37.83-1.57,0-1.3-5.49-4.03-15.81-6.7-18.48s-9.38-5.44-12.81-6.73c-.7-.26-.7-1.25,0-1.51,3.42-1.29,10.12-4.04,12.81-6.73,2.67-2.67,5.4-12.99,6.7-18.48.2-.83,1.37-.83,1.57,0,1.3,5.49,4.03,15.81,6.7,18.48,2.69,2.69,9.38,5.44,12.81,6.73Z"/>
        <path class="cls-3" d="M363.65,341.96c.7.26.7,1.25,0,1.51-3.42,1.29-10.12,4.04-12.81,6.73s-5.4,12.99-6.7,18.48c-.2.83-1.37.83-1.57,0-1.3-5.49-4.03-15.81-6.7-18.48s-9.38-5.44-12.81-6.73c-.7-.26-.7-1.25,0-1.51,3.42-1.29,10.12-4.04,12.81-6.73,2.67-2.67,5.4-12.99,6.7-18.48.2-.83,1.37-.83,1.57,0,1.3,5.49,4.03,15.81,6.7,18.48,2.69,2.69,9.38,5.44,12.81,6.73Z"/>
        <path class="cls-3" d="M499.93,210.5c.7.26.7,1.25,0,1.51-3.42,1.29-10.12,4.04-12.81,6.73s-5.4,12.99-6.7,18.48c-.2.83-1.37.83-1.57,0-1.3-5.49-4.03-15.81-6.7-18.48s-9.38-5.44-12.81-6.73c-.7-.26-.7-1.25,0-1.51,3.42-1.29,10.12-4.04,12.81-6.73,2.67-2.67,5.4-12.99,6.7-18.48.2-.83,1.37-.83,1.57,0,1.3,5.49,4.03,15.81,6.7,18.48,2.69,2.69,9.38,5.44,12.81,6.73Z"/>
      </g>
    </g>
  </g>
</svg>