<?xml version="1.0" encoding="UTF-8"?>
<svg id="Layer_2" data-name="Layer 2" xmlns="http://www.w3.org/2000/svg" viewBox="0 0 152.56 53.16">
  <defs>
    <style>
      .cls-1 {
        fill: #a8b0ec;
      }
    </style>
  </defs>
  <g id="Layer_1-2" data-name="Layer 1">
    <g>
      <path class="cls-1" d="M96.57,25.83c.7.26.7,1.25,0,1.51-3.42,1.29-10.12,4.04-12.81,6.73s-5.4,12.99-6.7,18.48c-.2.83-1.37.83-1.57,0-1.3-5.49-4.03-15.81-6.7-18.48s-9.38-5.44-12.81-6.73c-.7-.26-.7-1.25,0-1.51,3.42-1.29,10.12-4.04,12.81-6.73s5.4-12.99,6.7-18.48c.2-.83,1.37-.83,1.57,0,1.3,5.49,4.03,15.81,6.7,18.48s9.38,5.44,12.81,6.73Z"/>
      <path class="cls-1" d="M151.61,1.29c-4.31-2.63-15.84,1.19-27.05,10.62-12.07,10.15-17.93,17.32-27.32,27.28-7.29,7.73-13.57,12.42-12.91,13.09,1.39,1.41,24.88-1.01,34.26-4.54,6.31-2.37,14.33-7.74,12.99-12.5-.46-1.64-1.74-2.41-3.55-2.6,2.28-1.52,4.31-2.98,5.98-4.31,11.28-9.01,21.83-24.46,17.59-27.04Z"/>
      <path class="cls-1" d="M.96,1.29c4.31-2.63,15.84,1.19,27.05,10.62,12.07,10.15,17.93,17.32,27.32,27.28,7.29,7.73,13.57,12.42,12.91,13.09-1.39,1.41-24.88-1.01-34.26-4.54-6.31-2.37-14.33-7.74-12.99-12.5.46-1.64,1.74-2.41,3.55-2.6-2.28-1.52-4.31-2.98-5.98-4.31C7.27,19.33-3.28,3.87.96,1.29Z"/>
    </g>
  </g>
</svg>