<?xml version="1.0" encoding="UTF-8"?>
<svg id="Layer_2" data-name="Layer 2" xmlns="http://www.w3.org/2000/svg" xmlns:xlink="http://www.w3.org/1999/xlink" viewBox="0 0 386.39 176.97">
  <defs>
    <style>
      .cls-1 {
        fill: none;
      }

      .cls-2 {
        filter: url(#outer-glow-1);
      }

      .cls-3 {
        fill: #fff;
      }
    </style>
    <filter id="outer-glow-1" x="-18.27" y="-24.41" width="423" height="226" filterUnits="userSpaceOnUse">
      <feOffset dx="0" dy="0"/>
      <feGaussianBlur result="blur" stdDeviation="20"/>
      <feFlood flood-color="#fff" flood-opacity=".9"/>
      <feComposite in2="blur" operator="in"/>
      <feComposite in="SourceGraphic"/>
    </filter>
  </defs>
  <g id="Layer_5" data-name="Layer 5">
    <g>
      <g class="cls-2">
        <path class="cls-3" d="M233.3,86.99c1.38.52,1.38,2.47,0,2.99-6.77,2.55-20.01,7.99-25.32,13.3s-10.66,25.67-13.24,36.52c-.39,1.64-2.71,1.64-3.1,0-2.57-10.85-7.97-31.25-13.24-36.52s-18.55-10.75-25.32-13.3c-1.38-.52-1.38-2.47,0-2.99,6.77-2.55,20.01-7.99,25.32-13.3,5.27-5.27,10.66-25.67,13.24-36.52.39-1.64,2.71-1.64,3.1,0,2.57,10.85,7.97,31.25,13.24,36.52s18.55,10.75,25.32,13.3Z"/>
        <path class="cls-3" d="M342.08,38.5c-8.52-5.19-31.3,2.34-53.47,20.98-23.86,20.07-35.44,34.23-53.99,53.91-14.4,15.28-26.82,24.54-25.51,25.87,2.75,2.79,49.18-2,67.72-8.97,12.47-4.69,28.32-15.3,25.68-24.7-.91-3.25-3.43-4.77-7.02-5.13,4.5-3,8.52-5.88,11.81-8.51,22.29-17.81,43.14-48.35,34.77-53.45Z"/>
        <path class="cls-3" d="M44.31,38.5c8.52-5.19,31.3,2.34,53.47,20.98,23.86,20.07,35.44,34.23,53.99,53.91,14.4,15.28,26.82,24.54,25.51,25.87-2.75,2.79-49.18-2-67.72-8.97-12.47-4.69-28.32-15.3-25.68-24.7.91-3.25,3.43-4.77,7.02-5.13-4.5-3-8.52-5.88-11.81-8.51-22.29-17.81-43.14-48.35-34.77-53.45Z"/>
      </g>
      <rect class="cls-1" width="386.39" height="176.97"/>
    </g>
  </g>
</svg>