<?xml version="1.0" encoding="UTF-8"?>
<svg id="Layer_2" data-name="Layer 2" xmlns="http://www.w3.org/2000/svg" viewBox="0 0 699.65 214.91">
  <defs>
    <style>
      .cls-1 {
        fill: #fff;
      }
    </style>
  </defs>
  <g id="Layer_1-2" data-name="Layer 1">
    <g id="Projects">
      <path class="cls-1" d="M699.65,28.17s-38.05-34.6-90.07-27.11c-52.02,7.48-96.39,54.93-96.39,54.93C513.2,55.99,461.44,0,375.28,31.66c-81.65,30-86.98,91.4-86.98,91.4,0,0-14.69-12.62-30.26-7.73-22.25,6.99-24.8,23-24.8,23,0,0-47.99-19.2-76.65-8.61-37.5,13.85-44.78,40.48-44.78,40.48,0,0-32.89-2.38-63.73,8.61C16.65,190.01,0,214.91,0,214.91h699.65V28.17Z"/>
    </g>
  </g>
</svg>