<?xml version="1.0" encoding="UTF-8"?>
<svg id="Layer_2" data-name="Layer 2" xmlns="http://www.w3.org/2000/svg" xmlns:xlink="http://www.w3.org/1999/xlink" viewBox="0 0 669.69 344.96">
  <defs>
    <style>
      .cls-1 {
        fill: none;
      }

      .cls-2 {
        fill: #539aea;
      }

      .cls-3 {
        fill: #2661ca;
      }

      .cls-4 {
        fill: #ffe1f2;
      }

      .cls-5 {
        fill: #a8b0ec;
      }

      .cls-6 {
        clip-path: url(#clippath);
      }
    </style>
    <clipPath id="clippath">
      <path class="cls-1" d="M0,11.31S10.02.6,36.1,6.86c15.11,3.62,21.03,18.31,21.03,18.31,0,0,64.64-48.65,152.36-10.66,69.48,30.09,85.39,118.65,85.39,118.65,0,0,41.19-13.33,74.65,8.02,35.75,22.82,38.46,66.27,38.46,66.27,0,0,24.4-5.54,41.03,9.98,16.63,15.52,13.31,34.38,13.31,34.38,0,0,49.9-29.94,96.47-9.98,46.57,19.96,57.66,72.08,57.66,72.08,0,0,17.3-11.04,33.94-3.28,16.63,7.76,19.29,34.33,19.29,34.33H0V11.31Z"/>
    </clipPath>
  </defs>
  <g id="Layer_1-2" data-name="Layer 1">
    <g id="Projects">
      <g>
        <g class="cls-6">
          <path class="cls-3" d="M0,11.31S10.02.6,36.1,6.86c15.11,3.62,21.03,18.31,21.03,18.31,0,0,64.64-48.65,152.36-10.66,69.48,30.09,85.39,118.65,85.39,118.65,0,0,41.19-13.33,74.65,8.02,35.75,22.82,38.46,66.27,38.46,66.27,0,0,24.4-5.54,41.03,9.98,16.63,15.52,13.31,34.38,13.31,34.38,0,0,49.9-29.94,96.47-9.98,46.57,19.96,57.66,72.08,57.66,72.08,0,0,17.3-11.04,33.94-3.28,16.63,7.76,19.29,34.33,19.29,34.33H0V11.31Z"/>
          <path class="cls-2" d="M97.72,186.53s-33.55,20.35-97.72,5.41c-64.17-14.94-10.62-247.72-10.62-247.72,0,0,414.69-23.76,504.35,73.38,89.66,97.13,85.86,200.94,92.8,242.99,4.76,28.87-50.46,45.92-97.78,40.93-47.32-4.98-45.01-19.74-45.01-19.74,0,0-98.09,11.1-154.64,5.24-44.55-4.62-65.96-21.84-68.92-30.33s-7.57-14.97-3.65-41.94c3.23-22.25,20-45.83,20-45.83,0,0-22.46-.67-49.52,15.06-21.12,12.29-33.9,36.15-33.9,36.15,0,0-10.17,1.97-29.3-8.04-20.56-10.75-26.09-25.57-26.09-25.57Z"/>
          <path class="cls-2" d="M120.88,257.11c0,10.08-15.02,18.26-33.54,18.26s-37.48-16.3-37.48-26.39,21.61-21.17,39.88-18.13c18.75,3.12,31.14,16.17,31.14,26.25Z"/>
          <path class="cls-5" d="M395.89,168.78c-.8-21.32-85.39-171.63-171.2-192.94C138.89-45.48-9.57-5.95-9.57-5.95c0,0-33.2,77.15,18.93,79.02,22.78.82,37.36-11.05,37.36-11.05,0,0-.82,19,25.42,29.39.14.06.29.11.43.16-9.93,7.23-17.75,17.39-17.75,26.33,0,15.99,38.26,36.39,54.22,29.36,14.18-6.25,18.38-15.77,19.46-27.69,11.14,10.89,27.81,22.37,50.99,26.71,75.27,14.08,107.31-5.5,107.31-5.5,0,0,1.85,6.95,7.14,15.4-10.41,1.77-18.14,8.39-18.14,16.29,0,9.26,14.62,23.78,27.72,23.78,9.61,0,15.73-7.81,18.31-15.62.47.21.93.42,1.42.61,28.81,11.67,73.46,8.85,72.66-12.47Z"/>
          <ellipse class="cls-5" cx="422.47" cy="218.26" rx="22.93" ry="13.61"/>
          <path class="cls-4" d="M280.56,63.63c-4.59-5.75-12.76-10.29-22.19-13.41C249.64,29.16,187.16-1.89,141.16-7.25c-39.9-4.64-75.04,1.89-89.14,15.05C45.09,3,35.25,0,24.33,0,3.37,0-13.62,11.02-13.62,24.62S3.37,49.24,24.33,49.24c12.64,0,23.82-4.01,30.72-10.18,14.3,13.22,43.21,24.39,77.42,28.37,20.66,2.4,45.31,4.37,67.36,4.44,4.27,12.62,16.01,26.77,27.55,34.24,22.73,14.74,47.54,23.11,62.23,11.38,14.69-11.73,5.18-36.07-9.04-53.87Z"/>
          <ellipse class="cls-4" cx="332.21" cy="136.45" rx="12.67" ry="29.07" transform="translate(138.88 439.12) rotate(-79.76)"/>
        </g>
        <path class="cls-2" d="M503.84,205.98c0,11.97-9.71,26.15-21.68,26.15s-28.35-14.71-28.35-26.68,16.38-21.14,28.35-21.14,21.68,9.71,21.68,21.68Z"/>
        <path class="cls-5" d="M502.72,199.09c1.05,2.72-4.92,9.85-13.62,12.42-9.99,2.95-28.23-7.53-28.23-16.95,0-4.25,11.45-10.25,21.86-10.25s16.57,5.88,19.99,14.78Z"/>
      </g>
    </g>
  </g>
</svg>