<?xml version="1.0" encoding="UTF-8"?>
<svg id="Layer_2" data-name="Layer 2" xmlns="http://www.w3.org/2000/svg" viewBox="0 0 693.05 214.88">
  <defs>
    <style>
      .cls-1 {
        fill: #fff;
      }
    </style>
  </defs>
  <g id="Layer_1-2" data-name="Layer 1">
    <g id="Projects">
      <path class="cls-1" d="M0,34.64S16.02,4.6,85.23.27c74.91-4.69,106.17,54.41,106.17,54.41,0,0,16.27-16.33,38.16-11.44,27.47,6.14,28.73,35.15,28.73,35.15,0,0,57.36-39.26,145.59-7.92,73.84,26.23,80,75.41,80,75.41,0,0,31.84-18.31,67.79-5.13,35.95,13.18,35.95,36.02,35.95,36.02,0,0,20.28-10.19,60.2,0,40.8,10.41,45.22,38.11,45.22,38.11H0V34.64Z"/>
    </g>
  </g>
</svg>